name rise32.9588peak41.5061fall63.4684.mot
datacolumns 19
datarows 32
range 5.23498300000000 5.28665100000000
endheader
time	ground_force1_vx	ground_force1_vy	ground_force1_vz	ground_force1_px	ground_force1_py	ground_force1_pz	ground_force2_vx	ground_force2_vy	ground_force2_vz	ground_force2_px	ground_force2_py	ground_force2_pz	ground_torque1_x	ground_torque1_y	ground_torque1_z	ground_torque2_x	ground_torque2_y	ground_torque2_z	
5.23498300000000	-41.48624200000000	815.86683200000004	53.25051600000000	0.11297600000000	0.00000000000000	0.10940200000000	0.00000000000000	0.00000000000000	0.00000000000000	0.00000000000000	0.00000000000000	0.00000000000000	0.00000000000000	20.93132300000000	0.00000000000000	0.00000000000000	0.00000000000000	0.00000000000000	
5.23664800000000	-41.92291800000000	813.60218799999996	52.95445900000000	0.11222100000000	0.00000000000000	0.10923600000000	-1.19901400000000	3.53744400000000	0.82616600000000	0.00000000000000	0.00000000000000	0.00000000000000	0.00000000000000	20.84995200000000	0.00000000000000	0.00000000000000	0.22488500000000	0.00000000000000	
5.23831500000000	-42.37399100000000	811.22329700000000	52.64070000000000	0.11147600000000	0.00000000000000	0.10906400000000	-1.92418900000000	6.88907500000000	1.42337100000000	0.00000000000000	0.00000000000000	0.00000000000000	0.00000000000000	20.76993600000000	0.00000000000000	0.00000000000000	0.40222300000000	0.00000000000000	
5.23998400000000	-42.83979000000000	808.72917600000005	52.30919600000000	0.11074000000000	0.00000000000000	0.10888600000000	-2.74495200000000	10.94928200000000	2.12007200000000	0.00000000000000	0.00000000000000	0.00000000000000	0.00000000000000	20.69138400000000	0.00000000000000	0.00000000000000	0.61174100000000	0.00000000000000	
5.24164400000000	-43.32059200000000	806.11879899999997	51.95992900000000	0.11001500000000	0.00000000000000	0.10870400000000	-3.63637900000000	15.67811700000000	2.90139400000000	0.00000000000000	0.00000000000000	0.00000000000000	0.00000000000000	20.61439000000000	0.00000000000000	0.00000000000000	0.84973900000000	0.00000000000000	
5.24331800000000	-43.81661000000000	803.39110100000005	51.59289800000000	0.10929900000000	0.00000000000000	0.10851500000000	-4.56722600000000	21.00480500000000	3.74702500000000	0.00000000000000	0.00000000000000	0.00000000000000	0.00000000000000	20.53903400000000	0.00000000000000	0.00000000000000	1.11087300000000	0.00000000000000	
5.24498400000000	-44.32799500000000	800.54497100000003	51.20812000000000	0.10859300000000	0.00000000000000	0.10832100000000	-5.50194800000000	26.83315200000000	4.63256000000000	0.31003400000000	0.00000000000000	-0.05892700000000	0.00000000000000	20.46537400000000	0.00000000000000	0.00000000000000	2.50055400000000	0.00000000000000	
5.24665000000000	-44.85482700000000	797.57925499999999	50.80563500000000	0.10789700000000	0.00000000000000	0.10812200000000	-6.40324400000000	33.04970500000000	5.53130600000000	0.31731700000000	0.00000000000000	-0.05905400000000	0.00000000000000	20.39345500000000	0.00000000000000	0.00000000000000	3.05229700000000	0.00000000000000	
5.24832100000000	-45.39711800000000	794.49275200000000	50.38549900000000	0.10721200000000	0.00000000000000	0.10791800000000	-7.23482200000000	39.53357900000000	6.41632400000000	0.32385600000000	0.00000000000000	-0.05919400000000	0.00000000000000	20.32330200000000	0.00000000000000	0.00000000000000	3.61317900000000	0.00000000000000	
5.24997800000000	-45.95480200000000	791.28421500000002	49.94779200000000	0.10653600000000	0.00000000000000	0.10770900000000	-7.96399700000000	46.16655700000000	7.26241700000000	0.32975400000000	0.00000000000000	-0.05934500000000	0.00000000000000	20.25492100000000	0.00000000000000	0.00000000000000	4.16809100000000	0.00000000000000	
5.25164400000000	-46.52773300000000	787.95235400000001	49.49260900000000	0.10586900000000	0.00000000000000	0.10749400000000	-8.56379900000000	52.84210200000000	8.04782300000000	0.33509500000000	0.00000000000000	-0.05950600000000	0.00000000000000	20.18830200000000	0.00000000000000	0.00000000000000	4.70333400000000	0.00000000000000	
5.25331800000000	-47.11568400000000	784.49583199999995	49.02006800000000	0.10521200000000	0.00000000000000	0.10727400000000	-9.01438000000000	59.47233400000000	8.75542500000000	0.33994700000000	0.00000000000000	-0.05967700000000	0.00000000000000	20.12341300000000	0.00000000000000	0.00000000000000	5.20746400000000	0.00000000000000	
5.25497900000000	-47.71834400000000	780.91327300000000	48.53030500000000	0.10456500000000	0.00000000000000	0.10705000000000	-9.30366000000000	65.99248000000000	9.37341100000000	0.34436700000000	0.00000000000000	-0.05985800000000	0.00000000000000	20.06020400000000	0.00000000000000	0.00000000000000	5.67183300000000	0.00000000000000	
5.25664700000000	-48.33530900000000	777.20325900000000	48.02347500000000	0.10392500000000	0.00000000000000	0.10682000000000	-9.42723400000000	72.36273600000000	9.89540800000000	0.34840100000000	0.00000000000000	-0.06004900000000	0.00000000000000	19.99860800000000	0.00000000000000	0.00000000000000	6.09081700000000	0.00000000000000	
5.25831500000000	-48.96608700000000	773.36433799999998	47.49975600000000	0.10329500000000	0.00000000000000	0.10658600000000	-9.38768100000000	78.56775200000000	10.32013700000000	0.35209100000000	0.00000000000000	-0.06024700000000	0.00000000000000	19.93853600000000	0.00000000000000	0.00000000000000	6.46175300000000	0.00000000000000	
5.25998100000000	-49.61009100000000	769.39502400000003	46.95934200000000	0.10267200000000	0.00000000000000	0.10634800000000	-9.19341200000000	84.61420699999999	10.65071700000000	0.35546800000000	0.00000000000000	-0.06045500000000	0.00000000000000	19.87988100000000	0.00000000000000	0.00000000000000	6.78464900000000	0.00000000000000	
5.26164500000000	-50.26663900000000	765.29380300000003	46.40245000000000	0.10205700000000	0.00000000000000	0.10610500000000	-8.85723800000000	90.52697100000000	10.89372400000000	0.35856200000000	0.00000000000000	-0.06066900000000	0.00000000000000	19.82251900000000	0.00000000000000	0.00000000000000	7.06170900000000	0.00000000000000	
5.26331700000000	-50.93494900000000	761.05913899999996	45.82931600000000	0.10144800000000	0.00000000000000	0.10585900000000	-8.39483400000000	96.34444600000000	11.05813000000000	0.36139900000000	0.00000000000000	-0.06089200000000	0.00000000000000	19.76630600000000	0.00000000000000	0.00000000000000	7.29677000000000	0.00000000000000	
5.26498500000000	-51.61414100000000	756.68947600000001	45.24019700000000	0.10084600000000	0.00000000000000	0.10560800000000	-7.82322500000000	102.11360100000000	11.15423000000000	0.36399900000000	0.00000000000000	-0.06112100000000	0.00000000000000	19.71107900000000	0.00000000000000	0.00000000000000	7.49469300000000	0.00000000000000	
5.26664400000000	-52.30323600000000	752.18325100000004	44.63537100000000	0.10025000000000	0.00000000000000	0.10535300000000	-7.15943000000000	107.88515000000000	11.19265000000000	0.36638200000000	0.00000000000000	-0.06135700000000	0.00000000000000	19.65666000000000	0.00000000000000	0.00000000000000	7.66078100000000	0.00000000000000	
5.26831900000000	-53.00115000000000	747.53889500000002	44.01513600000000	0.09965900000000	0.00000000000000	0.10509500000000	-6.41933800000000	113.70925900000000	11.18348900000000	0.36856500000000	0.00000000000000	-0.06160000000000	0.00000000000000	19.60285200000000	0.00000000000000	0.00000000000000	7.80026400000000	0.00000000000000	
5.26998500000000	-53.70670300000000	742.75484500000005	43.37981200000000	0.09907200000000	0.00000000000000	0.10483300000000	-5.61686500000000	119.63199400000001	11.13566500000000	0.37056200000000	0.00000000000000	-0.06184800000000	0.00000000000000	19.54944000000000	0.00000000000000	0.00000000000000	7.91787500000000	0.00000000000000	
5.27165100000000	-54.41861000000000	737.82955200000004	42.72974300000000	0.09848900000000	0.00000000000000	0.10456800000000	-4.76340600000000	125.69268500000000	11.05644600000000	0.37238600000000	0.00000000000000	-0.06210200000000	0.00000000000000	19.49619800000000	0.00000000000000	0.00000000000000	8.01754800000000	0.00000000000000	
5.27331400000000	-55.13548800000000	732.76148899999998	42.06529000000000	0.09790900000000	0.00000000000000	0.10430100000000	-3.86757700000000	131.92222100000001	10.95120500000000	0.37405100000000	0.00000000000000	-0.06236100000000	0.00000000000000	19.44288000000000	0.00000000000000	0.00000000000000	8.10222400000000	0.00000000000000	
5.27498000000000	-55.85585300000000	727.54916500000002	41.38684100000000	0.09733100000000	0.00000000000000	0.10403000000000	-2.93521100000000	138.34225799999999	10.82334700000000	0.37556600000000	0.00000000000000	-0.06262600000000	0.00000000000000	19.38922900000000	0.00000000000000	0.00000000000000	8.17378100000000	0.00000000000000	
5.27664400000000	-56.57812600000000	722.19113800000002	40.69480400000000	0.09675500000000	0.00000000000000	0.10375600000000	-1.96956300000000	144.96521300000001	10.67440600000000	0.37694200000000	0.00000000000000	-0.06289400000000	0.00000000000000	19.33497200000000	0.00000000000000	0.00000000000000	8.23304900000000	0.00000000000000	
5.27831800000000	-57.30063300000000	716.68602199999998	39.98961100000000	0.09618000000000	0.00000000000000	0.10348100000000	-0.97167500000000	151.79492400000001	10.50425700000000	0.37818600000000	0.00000000000000	-0.06316700000000	0.00000000000000	19.27982600000000	0.00000000000000	0.00000000000000	8.27991200000000	0.00000000000000	
5.27998300000000	-58.02160700000000	711.03250800000001	39.27171600000000	0.09560500000000	0.00000000000000	0.10320300000000	0.05916500000000	158.82777700000000	10.31142300000000	0.37930800000000	0.00000000000000	-0.06344400000000	0.00000000000000	19.22349700000000	0.00000000000000	0.00000000000000	8.31346500000000	0.00000000000000	
5.28164800000000	-58.73919200000000	705.22937600000000	38.54159700000000	0.09502900000000	0.00000000000000	0.10292300000000	1.12491300000000	166.05416099999999	10.09342000000000	0.38031500000000	0.00000000000000	-0.06372500000000	0.00000000000000	19.16567800000000	0.00000000000000	0.00000000000000	8.33220200000000	0.00000000000000	
5.28331600000000	-59.45144900000000	699.27550699999995	37.79975500000000	0.09445300000000	0.00000000000000	0.10264100000000	2.22825600000000	173.46004400000001	9.84711600000000	0.38121400000000	0.00000000000000	-0.06400800000000	0.00000000000000	19.10605400000000	0.00000000000000	0.00000000000000	8.33421900000000	0.00000000000000	
5.28497600000000	-60.15635600000000	693.16990699999997	37.04671300000000	0.09387400000000	0.00000000000000	0.10235800000000	3.37214300000000	181.02856900000000	9.56908200000000	0.38201100000000	0.00000000000000	-0.06429500000000	0.00000000000000	19.04430500000000	0.00000000000000	0.00000000000000	8.31741400000000	0.00000000000000	
5.28665100000000	-60.85181900000000	686.91171699999995	36.28302000000000	0.09329300000000	0.00000000000000	0.10207300000000	4.55937300000000	188.74151800000001	9.25589200000000	0.38271200000000	0.00000000000000	-0.06458400000000	0.00000000000000	18.98010000000000	0.00000000000000	0.00000000000000	8.27966700000000	0.00000000000000	
